<svg xmlns="http://www.w3.org/2000/svg" width="19" height="19" viewBox="0 0 19 19" fill="none">
  <g clip-path="url(#clip0_1_1988)">
    <path d="M11.21 3.63002C11.21 3.47002 11.16 3.34002 11.06 3.24002C10.96 3.14002 10.83 3.09002 10.67 3.09002H5.02999C4.86999 3.09002 4.73999 3.14002 4.63999 3.24002C4.53999 3.34002 4.48999 3.47002 4.48999 3.63002V8.13002C4.48999 8.29002 4.53999 8.43002 4.63999 8.55002C4.73999 8.67002 4.86999 8.73002 5.02999 8.73002H10.67C10.83 8.73002 10.96 8.67002 11.06 8.55002C11.16 8.43002 11.21 8.29002 11.21 8.13002V3.63002ZM10.07 7.59002H5.56999V4.23002H10.07V7.59002ZM17.69 4.23002L15.41 3.15002C15.29 3.07002 15.15 3.05002 14.99 3.09002C14.83 3.13002 14.72 3.22002 14.66 3.36002C14.6 3.50002 14.59 3.65002 14.63 3.81002C14.67 3.97002 14.77 4.07002 14.93 4.11002L15.77 4.59002L15.71 4.77002C15.71 5.13002 15.82 5.45002 16.04 5.73002C16.26 6.01002 16.53 6.21002 16.85 6.33002V13.17C16.85 13.33 16.79 13.47 16.67 13.59C16.55 13.71 16.42 13.77 16.28 13.77C16.14 13.77 16.01 13.71 15.89 13.59C15.77 13.47 15.71 13.33 15.71 13.17V8.67002C15.71 8.03002 15.48 7.45002 15.02 6.93002C14.56 6.41002 14.05 6.09002 13.49 5.97002V2.49002C13.49 1.89002 13.27 1.37002 12.83 0.930019C12.39 0.490021 11.87 0.27002 11.27 0.27002H4.48999C3.88999 0.27002 3.35999 0.490021 2.89999 0.930019C2.43999 1.37002 2.20999 1.89002 2.20999 2.49002V15.09L1.42999 15.51C1.18999 15.63 1.06999 15.79 1.06999 15.99V17.67C1.06999 17.83 1.12999 17.97 1.24999 18.09C1.36999 18.21 1.50999 18.27 1.66999 18.27H14.03C14.19 18.27 14.32 18.21 14.42 18.09C14.52 17.97 14.57 17.83 14.57 17.67V15.99C14.57 15.79 14.47 15.63 14.27 15.51L13.49 15.09V7.11002C13.77 7.23002 14.02 7.44002 14.24 7.74002C14.46 8.04002 14.57 8.35002 14.57 8.67002V13.17C14.57 13.65 14.74 14.06 15.08 14.4C15.42 14.74 15.82 14.91 16.28 14.91C16.74 14.91 17.14 14.74 17.48 14.4C17.82 14.06 17.99 13.65 17.99 13.17V4.77002C17.99 4.53002 17.89 4.35002 17.69 4.23002ZM13.49 17.13H2.20999V16.35L3.04999 15.93C3.24999 15.85 3.34999 15.69 3.34999 15.45V2.49002C3.34999 2.21002 3.45999 1.96002 3.67999 1.74002C3.89999 1.52002 4.16999 1.41002 4.48999 1.41002H11.27C11.55 1.41002 11.8 1.52002 12.02 1.74002C12.24 1.96002 12.35 2.21002 12.35 2.49002V15.45C12.35 15.69 12.45 15.85 12.65 15.93L13.49 16.35V17.13Z" fill="#050B20"/>
  </g>
  <defs>
    <clipPath id="clip0_1_1988">
      <rect width="18" height="18" fill="white" transform="matrix(1 0 0 -1 0.529999 18.27)"/>
    </clipPath>
  </defs>
</svg>