<svg xmlns="http://www.w3.org/2000/svg" width="19" height="19" viewBox="0 0 19 19" fill="none">
  <g clip-path="url(#clip0_1_1868)">
    <path d="M10.9 3.81996C10.9 3.65996 10.85 3.52996 10.75 3.42996C10.65 3.32996 10.52 3.27996 10.36 3.27996H4.71999C4.55999 3.27996 4.42999 3.32996 4.32999 3.42996C4.22999 3.52996 4.17999 3.65996 4.17999 3.81996V8.31996C4.17999 8.47996 4.22999 8.61996 4.32999 8.73996C4.42999 8.85996 4.55999 8.91996 4.71999 8.91996H10.36C10.52 8.91996 10.65 8.85996 10.75 8.73996C10.85 8.61996 10.9 8.47996 10.9 8.31996V3.81996ZM9.75999 7.77996H5.25999V4.41996H9.75999V7.77996ZM17.38 4.41996L15.1 3.33996C14.98 3.25996 14.84 3.23996 14.68 3.27996C14.52 3.31996 14.41 3.40996 14.35 3.54996C14.29 3.68996 14.28 3.83996 14.32 3.99996C14.36 4.15996 14.46 4.25996 14.62 4.29996L15.46 4.77996L15.4 4.95996C15.4 5.31996 15.51 5.63996 15.73 5.91996C15.95 6.19996 16.22 6.39996 16.54 6.51996V13.36C16.54 13.52 16.48 13.66 16.36 13.78C16.24 13.9 16.11 13.96 15.97 13.96C15.83 13.96 15.7 13.9 15.58 13.78C15.46 13.66 15.4 13.52 15.4 13.36V8.85996C15.4 8.21996 15.17 7.63996 14.71 7.11996C14.25 6.59996 13.74 6.27996 13.18 6.15996V2.67996C13.18 2.07996 12.96 1.55996 12.52 1.11996C12.08 0.679962 11.56 0.459961 10.96 0.459961H4.17999C3.57999 0.459961 3.04999 0.679962 2.58999 1.11996C2.12999 1.55996 1.89999 2.07996 1.89999 2.67996V15.28L1.11999 15.7C0.879995 15.82 0.759995 15.98 0.759995 16.18V17.86C0.759995 18.02 0.819995 18.16 0.939994 18.28C1.05999 18.4 1.19999 18.46 1.35999 18.46H13.72C13.88 18.46 14.01 18.4 14.11 18.28C14.21 18.16 14.26 18.02 14.26 17.86V16.18C14.26 15.98 14.16 15.82 13.96 15.7L13.18 15.28V7.29996C13.46 7.41996 13.71 7.62996 13.93 7.92996C14.15 8.22996 14.26 8.53996 14.26 8.85996V13.36C14.26 13.84 14.43 14.25 14.77 14.59C15.11 14.93 15.51 15.1 15.97 15.1C16.43 15.1 16.83 14.93 17.17 14.59C17.51 14.25 17.68 13.84 17.68 13.36V4.95996C17.68 4.71996 17.58 4.53996 17.38 4.41996ZM13.18 17.32H1.89999V16.54L2.73999 16.12C2.93999 16.04 3.03999 15.88 3.03999 15.64V2.67996C3.03999 2.39996 3.14999 2.14996 3.36999 1.92996C3.58999 1.70996 3.85999 1.59996 4.17999 1.59996H10.96C11.24 1.59996 11.49 1.70996 11.71 1.92996C11.93 2.14996 12.04 2.39996 12.04 2.67996V15.64C12.04 15.88 12.14 16.04 12.34 16.12L13.18 16.54V17.32Z" fill="#050B20"/>
  </g>
  <defs>
    <clipPath id="clip0_1_1868">
      <rect width="18" height="18" fill="white" transform="matrix(1 0 0 -1 0.220001 18.46)"/>
    </clipPath>
  </defs>
</svg>