<svg xmlns="http://www.w3.org/2000/svg" width="19" height="19" viewBox="0 0 19 19" fill="none">
  <g clip-path="url(#clip0_1_2205)">
    <path d="M10.99 3.49013C10.99 3.33013 10.94 3.20013 10.84 3.10013C10.74 3.00013 10.61 2.95013 10.45 2.95013H4.80999C4.64999 2.95013 4.51999 3.00013 4.41999 3.10013C4.31999 3.20013 4.26999 3.33013 4.26999 3.49013V7.99013C4.26999 8.15013 4.31999 8.29013 4.41999 8.41013C4.51999 8.53013 4.64999 8.59013 4.80999 8.59013H10.45C10.61 8.59013 10.74 8.53013 10.84 8.41013C10.94 8.29013 10.99 8.15013 10.99 7.99013V3.49013ZM9.84999 7.45013H5.34999V4.09013H9.84999V7.45013ZM17.47 4.09013L15.19 3.01013C15.07 2.93013 14.93 2.91013 14.77 2.95013C14.61 2.99013 14.5 3.08013 14.44 3.22013C14.38 3.36013 14.37 3.51013 14.41 3.67013C14.45 3.83013 14.55 3.93013 14.71 3.97013L15.55 4.45013L15.49 4.63013C15.49 4.99013 15.6 5.31013 15.82 5.59013C16.04 5.87013 16.31 6.07013 16.63 6.19013V13.0301C16.63 13.1901 16.57 13.3301 16.45 13.4501C16.33 13.5701 16.2 13.6301 16.06 13.6301C15.92 13.6301 15.79 13.5701 15.67 13.4501C15.55 13.3301 15.49 13.1901 15.49 13.0301V8.53013C15.49 7.89013 15.26 7.31013 14.8 6.79013C14.34 6.27013 13.83 5.95013 13.27 5.83013V2.35013C13.27 1.75013 13.05 1.23013 12.61 0.790127C12.17 0.350128 11.65 0.130127 11.05 0.130127H4.26999C3.66999 0.130127 3.13999 0.350128 2.67999 0.790127C2.21999 1.23013 1.98999 1.75013 1.98999 2.35013V14.9501L1.20999 15.3701C0.969991 15.4901 0.849991 15.6501 0.849991 15.8501V17.5301C0.849991 17.6901 0.909991 17.8301 1.02999 17.9501C1.14999 18.0701 1.28999 18.1301 1.44999 18.1301H13.81C13.97 18.1301 14.1 18.0701 14.2 17.9501C14.3 17.8301 14.35 17.6901 14.35 17.5301V15.8501C14.35 15.6501 14.25 15.4901 14.05 15.3701L13.27 14.9501V6.97013C13.55 7.09013 13.8 7.30013 14.02 7.60013C14.24 7.90013 14.35 8.21013 14.35 8.53013V13.0301C14.35 13.5101 14.52 13.9201 14.86 14.2601C15.2 14.6001 15.6 14.7701 16.06 14.7701C16.52 14.7701 16.92 14.6001 17.26 14.2601C17.6 13.9201 17.77 13.5101 17.77 13.0301V4.63013C17.77 4.39013 17.67 4.21013 17.47 4.09013ZM13.27 16.9901H1.98999V16.2101L2.82999 15.7901C3.02999 15.7101 3.12999 15.5501 3.12999 15.3101V2.35013C3.12999 2.07013 3.23999 1.82013 3.45999 1.60013C3.67999 1.38013 3.94999 1.27013 4.26999 1.27013H11.05C11.33 1.27013 11.58 1.38013 11.8 1.60013C12.02 1.82013 12.13 2.07013 12.13 2.35013V15.3101C12.13 15.5501 12.23 15.7101 12.43 15.7901L13.27 16.2101V16.9901Z" fill="white"/>
  </g>
  <defs>
    <clipPath id="clip0_1_2205">
      <rect width="18" height="18" fill="white" transform="matrix(1 0 0 -1 0.309998 18.1301)"/>
    </clipPath>
  </defs>
</svg>