<svg xmlns="http://www.w3.org/2000/svg" width="19" height="19" viewBox="0 0 19 19" fill="none">
  <path d="M3.36001 2.13991C2.80001 2.13991 2.32001 2.33991 1.92001 2.73991C1.52001 3.13991 1.32001 3.62991 1.32001 4.20991C1.32001 4.78991 1.52001 5.27991 1.92001 5.67991C2.32001 6.07991 2.80001 6.27991 3.36001 6.27991C3.92001 6.27991 4.40001 6.07991 4.80001 5.67991C5.20001 5.27991 5.40001 4.78991 5.40001 4.20991C5.40001 3.62991 5.20001 3.13991 4.80001 2.73991C4.40001 2.33991 3.92001 2.13991 3.36001 2.13991ZM3.36001 3.27991C3.60001 3.27991 3.82001 3.36991 4.02001 3.54991C4.22001 3.72991 4.32001 3.94991 4.32001 4.20991C4.32001 4.46991 4.22001 4.68991 4.02001 4.86991C3.82001 5.04991 3.60001 5.13991 3.36001 5.13991C3.12001 5.13991 2.90001 5.04991 2.70001 4.86991C2.50001 4.68991 2.40001 4.46991 2.40001 4.20991C2.40001 3.94991 2.50001 3.72991 2.70001 3.54991C2.90001 3.36991 3.12001 3.27991 3.36001 3.27991ZM3.36001 12.6399C2.80001 12.6399 2.32001 12.8399 1.92001 13.2399C1.52001 13.6399 1.32001 14.1299 1.32001 14.7099C1.32001 15.2899 1.52001 15.7799 1.92001 16.1799C2.32001 16.5799 2.80001 16.7799 3.36001 16.7799C3.92001 16.7799 4.40001 16.5799 4.80001 16.1799C5.20001 15.7799 5.40001 15.2899 5.40001 14.7099C5.40001 14.1299 5.20001 13.6399 4.80001 13.2399C4.40001 12.8399 3.92001 12.6399 3.36001 12.6399ZM3.36001 13.7799C3.60001 13.7799 3.82001 13.8699 4.02001 14.0499C4.22001 14.2299 4.32001 14.4499 4.32001 14.7099C4.32001 14.9699 4.22001 15.1899 4.02001 15.3699C3.82001 15.5499 3.60001 15.6399 3.36001 15.6399C3.12001 15.6399 2.90001 15.5499 2.70001 15.3699C2.50001 15.1899 2.40001 14.9699 2.40001 14.7099C2.40001 14.4499 2.50001 14.2299 2.70001 14.0499C2.90001 13.8699 3.12001 13.7799 3.36001 13.7799ZM9.36001 2.13991C8.80001 2.13991 8.32001 2.33991 7.92001 2.73991C7.52001 3.13991 7.32001 3.62991 7.32001 4.20991C7.32001 4.78991 7.52001 5.27991 7.92001 5.67991C8.32001 6.07991 8.80001 6.27991 9.36001 6.27991C9.92001 6.27991 10.4 6.07991 10.8 5.67991C11.2 5.27991 11.4 4.78991 11.4 4.20991C11.4 3.62991 11.2 3.13991 10.8 2.73991C10.4 2.33991 9.92001 2.13991 9.36001 2.13991ZM9.36001 3.27991C9.60001 3.27991 9.82001 3.36991 10.02 3.54991C10.22 3.72991 10.32 3.94991 10.32 4.20991C10.32 4.46991 10.22 4.68991 10.02 4.86991C9.82001 5.04991 9.60001 5.13991 9.36001 5.13991C9.12001 5.13991 8.90001 5.04991 8.70001 4.86991C8.50001 4.68991 8.40001 4.46991 8.40001 4.20991C8.40001 3.94991 8.50001 3.72991 8.70001 3.54991C8.90001 3.36991 9.12001 3.27991 9.36001 3.27991ZM9.36001 12.6399C8.80001 12.6399 8.32001 12.8399 7.92001 13.2399C7.52001 13.6399 7.32001 14.1299 7.32001 14.7099C7.32001 15.2899 7.52001 15.7799 7.92001 16.1799C8.32001 16.5799 8.80001 16.7799 9.36001 16.7799C9.92001 16.7799 10.4 16.5799 10.8 16.1799C11.2 15.7799 11.4 15.2899 11.4 14.7099C11.4 14.1299 11.2 13.6399 10.8 13.2399C10.4 12.8399 9.92001 12.6399 9.36001 12.6399ZM9.36001 13.7799C9.60001 13.7799 9.82001 13.8699 10.02 14.0499C10.22 14.2299 10.32 14.4499 10.32 14.7099C10.32 14.9699 10.22 15.1899 10.02 15.3699C9.82001 15.5499 9.60001 15.6399 9.36001 15.6399C9.12001 15.6399 8.90001 15.5499 8.70001 15.3699C8.50001 15.1899 8.40001 14.9699 8.40001 14.7099C8.40001 14.4499 8.50001 14.2299 8.70001 14.0499C8.90001 13.8699 9.12001 13.7799 9.36001 13.7799ZM15.36 2.13991C14.8 2.13991 14.32 2.33991 13.92 2.73991C13.52 3.13991 13.32 3.62991 13.32 4.20991C13.32 4.78991 13.52 5.27991 13.92 5.67991C14.32 6.07991 14.8 6.27991 15.36 6.27991C15.92 6.27991 16.4 6.07991 16.8 5.67991C17.2 5.27991 17.4 4.78991 17.4 4.20991C17.4 3.62991 17.2 3.13991 16.8 2.73991C16.4 2.33991 15.92 2.13991 15.36 2.13991ZM15.36 3.27991C15.6 3.27991 15.82 3.36991 16.02 3.54991C16.22 3.72991 16.32 3.94991 16.32 4.20991C16.32 4.46991 16.22 4.68991 16.02 4.86991C15.82 5.04991 15.6 5.13991 15.36 5.13991C15.12 5.13991 14.9 5.04991 14.7 4.86991C14.5 4.68991 14.4 4.46991 14.4 4.20991C14.4 3.94991 14.5 3.72991 14.7 3.54991C14.9 3.36991 15.12 3.27991 15.36 3.27991ZM15.36 12.6399C14.8 12.6399 14.32 12.8399 13.92 13.2399C13.52 13.6399 13.32 14.1299 13.32 14.7099C13.32 15.2899 13.52 15.7799 13.92 16.1799C14.32 16.5799 14.8 16.7799 15.36 16.7799C15.92 16.7799 16.4 16.5799 16.8 16.1799C17.2 15.7799 17.4 15.2899 17.4 14.7099C17.4 14.1299 17.2 13.6399 16.8 13.2399C16.4 12.8399 15.92 12.6399 15.36 12.6399ZM15.36 13.7799C15.6 13.7799 15.82 13.8699 16.02 14.0499C16.22 14.2299 16.32 14.4499 16.32 14.7099C16.32 14.9699 16.22 15.1899 16.02 15.3699C15.82 15.5499 15.6 15.6399 15.36 15.6399C15.12 15.6399 14.9 15.5499 14.7 15.3699C14.5 15.1899 14.4 14.9699 14.4 14.7099C14.4 14.4499 14.5 14.2299 14.7 14.0499C14.9 13.8699 15.12 13.7799 15.36 13.7799ZM2.82001 5.67991V13.1799C2.82001 13.3399 2.87001 13.4799 2.97001 13.5999C3.07001 13.7199 3.20001 13.7799 3.36001 13.7799C3.52001 13.7799 3.65001 13.7199 3.75001 13.5999C3.85001 13.4799 3.90001 13.3599 3.90001 13.2399V5.67991C3.90001 5.55991 3.85001 5.43991 3.75001 5.31991C3.65001 5.19991 3.52001 5.13991 3.36001 5.13991C3.20001 5.13991 3.07001 5.19991 2.97001 5.31991C2.87001 5.43991 2.82001 5.55991 2.82001 5.67991ZM8.82001 5.67991V13.1799C8.82001 13.3399 8.87001 13.4799 8.97001 13.5999C9.07001 13.7199 9.20001 13.7799 9.36001 13.7799C9.52001 13.7799 9.65001 13.7199 9.75001 13.5999C9.85001 13.4799 9.90001 13.3599 9.90001 13.2399V5.67991C9.90001 5.55991 9.85001 5.43991 9.75001 5.31991C9.65001 5.19991 9.52001 5.13991 9.36001 5.13991C9.20001 5.13991 9.07001 5.19991 8.97001 5.31991C8.87001 5.43991 8.82001 5.55991 8.82001 5.67991ZM14.82 5.67991V8.67991C14.82 8.75991 14.8 8.81991 14.76 8.85991C14.72 8.89991 14.68 8.91991 14.64 8.91991H3.36001C3.20001 8.91991 3.07001 8.96991 2.97001 9.06991C2.87001 9.16991 2.82001 9.29991 2.82001 9.45991C2.82001 9.61991 2.87001 9.74991 2.97001 9.84991C3.07001 9.94991 3.20001 9.99991 3.36001 9.99991H14.64C15 9.99991 15.3 9.87991 15.54 9.63991C15.78 9.39991 15.9 9.07991 15.9 8.67991V5.73991C15.9 5.57991 15.85 5.43991 15.75 5.31991C15.65 5.19991 15.52 5.13991 15.36 5.13991C15.2 5.13991 15.07 5.19991 14.97 5.31991C14.87 5.43991 14.82 5.55991 14.82 5.67991Z" fill="#050B20"/>
</svg>