<svg xmlns="http://www.w3.org/2000/svg" width="19" height="19" viewBox="0 0 19 19" fill="none">
  <path d="M3.35998 1.8102C2.79998 1.8102 2.31998 2.0102 1.91998 2.4102C1.51998 2.8102 1.31998 3.3002 1.31998 3.8802C1.31998 4.4602 1.51998 4.9502 1.91998 5.3502C2.31998 5.7502 2.79998 5.9502 3.35998 5.9502C3.91998 5.9502 4.39998 5.7502 4.79998 5.3502C5.19998 4.9502 5.39998 4.4602 5.39998 3.8802C5.39998 3.3002 5.19998 2.8102 4.79998 2.4102C4.39998 2.0102 3.91998 1.8102 3.35998 1.8102ZM3.35998 2.9502C3.59998 2.9502 3.81998 3.0402 4.01998 3.2202C4.21998 3.4002 4.31998 3.6202 4.31998 3.8802C4.31998 4.1402 4.21998 4.3602 4.01998 4.5402C3.81998 4.7202 3.59998 4.8102 3.35998 4.8102C3.11998 4.8102 2.89998 4.7202 2.69998 4.5402C2.49998 4.3602 2.39998 4.1402 2.39998 3.8802C2.39998 3.6202 2.49998 3.4002 2.69998 3.2202C2.89998 3.0402 3.11998 2.9502 3.35998 2.9502ZM3.35998 12.3102C2.79998 12.3102 2.31998 12.5102 1.91998 12.9102C1.51998 13.3102 1.31998 13.8002 1.31998 14.3802C1.31998 14.9602 1.51998 15.4502 1.91998 15.8502C2.31998 16.2502 2.79998 16.4502 3.35998 16.4502C3.91998 16.4502 4.39998 16.2502 4.79998 15.8502C5.19998 15.4502 5.39998 14.9602 5.39998 14.3802C5.39998 13.8002 5.19998 13.3102 4.79998 12.9102C4.39998 12.5102 3.91998 12.3102 3.35998 12.3102ZM3.35998 13.4502C3.59998 13.4502 3.81998 13.5402 4.01998 13.7202C4.21998 13.9002 4.31998 14.1202 4.31998 14.3802C4.31998 14.6402 4.21998 14.8602 4.01998 15.0402C3.81998 15.2202 3.59998 15.3102 3.35998 15.3102C3.11998 15.3102 2.89998 15.2202 2.69998 15.0402C2.49998 14.8602 2.39998 14.6402 2.39998 14.3802C2.39998 14.1202 2.49998 13.9002 2.69998 13.7202C2.89998 13.5402 3.11998 13.4502 3.35998 13.4502ZM9.35998 1.8102C8.79998 1.8102 8.31998 2.0102 7.91998 2.4102C7.51998 2.8102 7.31998 3.3002 7.31998 3.8802C7.31998 4.4602 7.51998 4.9502 7.91998 5.3502C8.31998 5.7502 8.79998 5.9502 9.35998 5.9502C9.91998 5.9502 10.4 5.7502 10.8 5.3502C11.2 4.9502 11.4 4.4602 11.4 3.8802C11.4 3.3002 11.2 2.8102 10.8 2.4102C10.4 2.0102 9.91998 1.8102 9.35998 1.8102ZM9.35998 2.9502C9.59998 2.9502 9.81998 3.0402 10.02 3.2202C10.22 3.4002 10.32 3.6202 10.32 3.8802C10.32 4.1402 10.22 4.3602 10.02 4.5402C9.81998 4.7202 9.59998 4.8102 9.35998 4.8102C9.11998 4.8102 8.89998 4.7202 8.69998 4.5402C8.49998 4.3602 8.39998 4.1402 8.39998 3.8802C8.39998 3.6202 8.49998 3.4002 8.69998 3.2202C8.89998 3.0402 9.11998 2.9502 9.35998 2.9502ZM9.35998 12.3102C8.79998 12.3102 8.31998 12.5102 7.91998 12.9102C7.51998 13.3102 7.31998 13.8002 7.31998 14.3802C7.31998 14.9602 7.51998 15.4502 7.91998 15.8502C8.31998 16.2502 8.79998 16.4502 9.35998 16.4502C9.91998 16.4502 10.4 16.2502 10.8 15.8502C11.2 15.4502 11.4 14.9602 11.4 14.3802C11.4 13.8002 11.2 13.3102 10.8 12.9102C10.4 12.5102 9.91998 12.3102 9.35998 12.3102ZM9.35998 13.4502C9.59998 13.4502 9.81998 13.5402 10.02 13.7202C10.22 13.9002 10.32 14.1202 10.32 14.3802C10.32 14.6402 10.22 14.8602 10.02 15.0402C9.81998 15.2202 9.59998 15.3102 9.35998 15.3102C9.11998 15.3102 8.89998 15.2202 8.69998 15.0402C8.49998 14.8602 8.39998 14.6402 8.39998 14.3802C8.39998 14.1202 8.49998 13.9002 8.69998 13.7202C8.89998 13.5402 9.11998 13.4502 9.35998 13.4502ZM15.36 1.8102C14.8 1.8102 14.32 2.0102 13.92 2.4102C13.52 2.8102 13.32 3.3002 13.32 3.8802C13.32 4.4602 13.52 4.9502 13.92 5.3502C14.32 5.7502 14.8 5.9502 15.36 5.9502C15.92 5.9502 16.4 5.7502 16.8 5.3502C17.2 4.9502 17.4 4.4602 17.4 3.8802C17.4 3.3002 17.2 2.8102 16.8 2.4102C16.4 2.0102 15.92 1.8102 15.36 1.8102ZM15.36 2.9502C15.6 2.9502 15.82 3.0402 16.02 3.2202C16.22 3.4002 16.32 3.6202 16.32 3.8802C16.32 4.1402 16.22 4.3602 16.02 4.5402C15.82 4.7202 15.6 4.8102 15.36 4.8102C15.12 4.8102 14.9 4.7202 14.7 4.5402C14.5 4.3602 14.4 4.1402 14.4 3.8802C14.4 3.6202 14.5 3.4002 14.7 3.2202C14.9 3.0402 15.12 2.9502 15.36 2.9502ZM15.36 12.3102C14.8 12.3102 14.32 12.5102 13.92 12.9102C13.52 13.3102 13.32 13.8002 13.32 14.3802C13.32 14.9602 13.52 15.4502 13.92 15.8502C14.32 16.2502 14.8 16.4502 15.36 16.4502C15.92 16.4502 16.4 16.2502 16.8 15.8502C17.2 15.4502 17.4 14.9602 17.4 14.3802C17.4 13.8002 17.2 13.3102 16.8 12.9102C16.4 12.5102 15.92 12.3102 15.36 12.3102ZM15.36 13.4502C15.6 13.4502 15.82 13.5402 16.02 13.7202C16.22 13.9002 16.32 14.1202 16.32 14.3802C16.32 14.6402 16.22 14.8602 16.02 15.0402C15.82 15.2202 15.6 15.3102 15.36 15.3102C15.12 15.3102 14.9 15.2202 14.7 15.0402C14.5 14.8602 14.4 14.6402 14.4 14.3802C14.4 14.1202 14.5 13.9002 14.7 13.7202C14.9 13.5402 15.12 13.4502 15.36 13.4502ZM2.81998 5.3502V12.8502C2.81998 13.0102 2.86998 13.1502 2.96998 13.2702C3.06998 13.3902 3.19998 13.4502 3.35998 13.4502C3.51998 13.4502 3.64998 13.3902 3.74998 13.2702C3.84998 13.1502 3.89998 13.0302 3.89998 12.9102V5.3502C3.89998 5.2302 3.84998 5.1102 3.74998 4.9902C3.64998 4.8702 3.51998 4.8102 3.35998 4.8102C3.19998 4.8102 3.06998 4.8702 2.96998 4.9902C2.86998 5.1102 2.81998 5.2302 2.81998 5.3502ZM8.81998 5.3502V12.8502C8.81998 13.0102 8.86998 13.1502 8.96998 13.2702C9.06998 13.3902 9.19998 13.4502 9.35998 13.4502C9.51998 13.4502 9.64998 13.3902 9.74998 13.2702C9.84998 13.1502 9.89998 13.0302 9.89998 12.9102V5.3502C9.89998 5.2302 9.84998 5.1102 9.74998 4.9902C9.64998 4.8702 9.51998 4.8102 9.35998 4.8102C9.19998 4.8102 9.06998 4.8702 8.96998 4.9902C8.86998 5.1102 8.81998 5.2302 8.81998 5.3502ZM14.82 5.3502V8.3502C14.82 8.4302 14.8 8.4902 14.76 8.5302C14.72 8.5702 14.68 8.5902 14.64 8.5902H3.35998C3.19998 8.5902 3.06998 8.6402 2.96998 8.7402C2.86998 8.8402 2.81998 8.9702 2.81998 9.1302C2.81998 9.2902 2.86998 9.4202 2.96998 9.5202C3.06998 9.6202 3.19998 9.6702 3.35998 9.6702H14.64C15 9.6702 15.3 9.5502 15.54 9.3102C15.78 9.0702 15.9 8.7502 15.9 8.3502V5.4102C15.9 5.2502 15.85 5.1102 15.75 4.9902C15.65 4.8702 15.52 4.8102 15.36 4.8102C15.2 4.8102 15.07 4.8702 14.97 4.9902C14.87 5.1102 14.82 5.2302 14.82 5.3502Z" fill="white"/>
</svg>