<svg xmlns="http://www.w3.org/2000/svg" width="19" height="19" viewBox="0 0 19 19" fill="none">
  <g clip-path="url(#clip0_1_2202)">
    <path d="M18.95 10.7501C18.95 12.7901 18.35 14.6101 17.15 16.2101C17.03 16.3701 16.87 16.4601 16.67 16.4801C16.47 16.5001 16.29 16.4501 16.13 16.3301C15.97 16.2101 15.88 16.0601 15.86 15.8801C15.84 15.7001 15.89 15.5301 16.01 15.3701C17.05 14.0101 17.57 12.4701 17.57 10.7501C17.57 9.39009 17.23 8.13009 16.55 6.97009C15.87 5.81009 14.94 4.89009 13.76 4.21009C12.58 3.53009 11.31 3.19009 9.95 3.19009C8.59 3.19009 7.32 3.53009 6.14 4.21009C4.96 4.89009 4.03 5.81009 3.35 6.97009C2.67 8.13009 2.33 9.39009 2.33 10.7501C2.33 12.4701 2.85 14.0101 3.89 15.3701C4.01 15.5301 4.06 15.7001 4.04 15.8801C4.02 16.0601 3.93 16.2101 3.77 16.3301C3.61 16.4501 3.43 16.5001 3.23 16.4801C3.03 16.4601 2.87 16.3701 2.75 16.2101C1.55 14.6101 0.949997 12.7901 0.949997 10.7501C0.949997 9.15009 1.35 7.66009 2.15 6.28009C2.95 4.90009 4.04 3.81009 5.42 3.01009C6.8 2.21009 8.31 1.81009 9.95 1.81009C11.59 1.81009 13.1 2.21009 14.48 3.01009C15.86 3.81009 16.95 4.90009 17.75 6.28009C18.55 7.66009 18.95 9.15009 18.95 10.7501ZM14.39 6.55009C14.55 6.67009 14.63 6.83009 14.63 7.03009C14.63 7.23009 14.55 7.39009 14.39 7.51009L12.11 9.85009C12.31 10.2101 12.41 10.5901 12.41 10.9901C12.41 11.6701 12.17 12.2501 11.69 12.7301C11.21 13.2101 10.63 13.4501 9.95 13.4501C9.27 13.4501 8.69 13.2101 8.21 12.7301C7.73 12.2501 7.49 11.6701 7.49 10.9901C7.49 10.3101 7.73 9.73009 8.21 9.25009C8.69 8.77009 9.27 8.53009 9.95 8.53009C10.35 8.53009 10.73 8.63009 11.09 8.83009L13.43 6.55009C13.55 6.39009 13.71 6.31009 13.91 6.31009C14.11 6.31009 14.27 6.39009 14.39 6.55009ZM11.03 10.9901C11.03 10.7101 10.92 10.4701 10.7 10.2701C10.48 10.0701 10.23 9.97009 9.95 9.97009C9.67 9.97009 9.42 10.0701 9.2 10.2701C8.98 10.4701 8.87 10.7101 8.87 10.9901C8.87 11.2701 8.98 11.5201 9.2 11.7401C9.42 11.9601 9.67 12.0701 9.95 12.0701C10.23 12.0701 10.48 11.9601 10.7 11.7401C10.92 11.5201 11.03 11.2701 11.03 10.9901Z" fill="white"/>
  </g>
  <defs>
    <clipPath id="clip0_1_2202">
      <rect width="18" height="18" fill="white" transform="matrix(1 0 0 -1 0.949997 18.1301)"/>
    </clipPath>
  </defs>
</svg>