<svg xmlns="http://www.w3.org/2000/svg" width="19" height="19" viewBox="0 0 19 19" fill="none">
  <g clip-path="url(#clip0_1_1865)">
    <path d="M18.23 11.0799C18.23 13.1199 17.63 14.9399 16.43 16.5399C16.31 16.6999 16.15 16.7899 15.95 16.8099C15.75 16.8299 15.57 16.7799 15.41 16.6599C15.25 16.5399 15.16 16.3899 15.14 16.2099C15.12 16.0299 15.17 15.8599 15.29 15.6999C16.33 14.3399 16.85 12.7999 16.85 11.0799C16.85 9.71992 16.51 8.45992 15.83 7.29992C15.15 6.13992 14.22 5.21992 13.04 4.53992C11.86 3.85992 10.59 3.51992 9.23 3.51992C7.87 3.51992 6.6 3.85992 5.42 4.53992C4.24 5.21992 3.31 6.13992 2.63 7.29992C1.95 8.45992 1.61 9.71992 1.61 11.0799C1.61 12.7999 2.13 14.3399 3.17 15.6999C3.29 15.8599 3.34 16.0299 3.32 16.2099C3.3 16.3899 3.21 16.5399 3.05 16.6599C2.89 16.7799 2.71 16.8299 2.51 16.8099C2.31 16.7899 2.15 16.6999 2.03 16.5399C0.829996 14.9399 0.229996 13.1199 0.229996 11.0799C0.229996 9.47992 0.629996 7.98992 1.43 6.60992C2.23 5.22992 3.32 4.13992 4.7 3.33992C6.08 2.53992 7.59 2.13992 9.23 2.13992C10.87 2.13992 12.38 2.53992 13.76 3.33992C15.14 4.13992 16.23 5.22992 17.03 6.60992C17.83 7.98992 18.23 9.47992 18.23 11.0799ZM13.67 6.87992C13.83 6.99992 13.91 7.15992 13.91 7.35992C13.91 7.55992 13.83 7.71992 13.67 7.83992L11.39 10.1799C11.59 10.5399 11.69 10.9199 11.69 11.3199C11.69 11.9999 11.45 12.5799 10.97 13.0599C10.49 13.5399 9.91 13.7799 9.23 13.7799C8.55 13.7799 7.97 13.5399 7.49 13.0599C7.01 12.5799 6.77 11.9999 6.77 11.3199C6.77 10.6399 7.01 10.0599 7.49 9.57992C7.97 9.09992 8.55 8.85992 9.23 8.85992C9.63 8.85992 10.01 8.95992 10.37 9.15992L12.71 6.87992C12.83 6.71992 12.99 6.63992 13.19 6.63992C13.39 6.63992 13.55 6.71992 13.67 6.87992ZM10.31 11.3199C10.31 11.0399 10.2 10.7999 9.98 10.5999C9.76 10.3999 9.51 10.2999 9.23 10.2999C8.95 10.2999 8.7 10.3999 8.48 10.5999C8.26 10.7999 8.15 11.0399 8.15 11.3199C8.15 11.5999 8.26 11.8499 8.48 12.0699C8.7 12.2899 8.95 12.3999 9.23 12.3999C9.51 12.3999 9.76 12.2899 9.98 12.0699C10.2 11.8499 10.31 11.5999 10.31 11.3199Z" fill="#050B20"/>
  </g>
  <defs>
    <clipPath id="clip0_1_1865">
      <rect width="18" height="18" fill="white" transform="matrix(1 0 0 -1 0.229996 18.46)"/>
    </clipPath>
  </defs>
</svg>