<svg xmlns="http://www.w3.org/2000/svg" width="26" height="35" viewBox="0 0 26 35" fill="none">
  <mask id="mask0_1_1767" style="mask-type:luminance" maskUnits="userSpaceOnUse" x="0" y="4" width="26" height="27">
    <path d="M26 4.94H0V30.94H26V4.94Z" fill="white"/>
  </mask>
  <g mask="url(#mask0_1_1767)">
    <path d="M25.1522 21.3313H24.3043V17.0923C24.3043 15.6897 23.1633 14.5488 21.7609 14.5488H18.9807L17.8648 11.2009C17.5179 10.1607 16.5482 9.46179 15.4517 9.46179C15.3197 9.46179 6.15383 9.46179 5.93475 9.46179C4.82945 9.46179 3.8871 10.1706 3.53712 11.1574H2.54348C1.141 11.1574 0 12.2984 0 13.7009V17.0923C0 18.4947 1.141 19.6357 2.54348 19.6357H3.39133V21.3313H2.54348C2.07527 21.3313 1.69564 21.7109 1.69564 22.1792C1.69564 22.6475 2.07523 23.0271 2.54348 23.0271C3.3375 23.0271 4.29031 23.0271 5.08696 23.0271C5.08696 24.897 6.60831 26.4184 8.47829 26.4184C10.3482 26.4184 11.8696 24.897 11.8696 23.0271H15.8261C15.8261 24.897 17.3475 26.4184 19.2174 26.4184C21.0875 26.4184 22.6088 24.897 22.6088 23.0271C23.4057 23.0271 24.3588 23.0271 25.1522 23.0271C25.6205 23.0271 26.0001 22.6475 26.0001 22.1792C26.0001 21.7109 25.6204 21.3313 25.1522 21.3313ZM3.39133 17.94H2.54348C2.07599 17.94 1.69564 17.5597 1.69564 17.0922V13.7009C1.69564 13.2333 2.07599 12.853 2.54348 12.853H3.39133C3.39133 13.3932 3.39133 17.4162 3.39133 17.94ZM11.8695 11.1574H13.2826H15.4517C15.8173 11.1574 16.1405 11.3904 16.256 11.7371L17.1932 14.5487H11.8695V11.1574ZM5.08696 12.0052C5.08696 11.5377 5.46731 11.1574 5.93481 11.1574H10.174V14.5487H5.08696V12.0052ZM8.47829 24.7227C7.5433 24.7227 6.78265 23.962 6.78265 23.027C6.78265 22.092 7.5433 21.3313 8.47829 21.3313C9.4133 21.3313 10.174 22.092 10.174 23.027C10.174 23.962 9.4133 24.7227 8.47829 24.7227ZM19.2174 24.7227C18.2824 24.7227 17.5218 23.962 17.5218 23.027C17.5218 22.092 18.2824 21.3313 19.2174 21.3313C20.1524 21.3313 20.913 22.092 20.913 23.027C20.913 23.962 20.1524 24.7227 19.2174 24.7227ZM22.6087 21.3313H22.1525C21.5651 20.3187 20.4699 19.6357 19.2174 19.6357C17.9649 19.6357 16.8697 20.3187 16.2823 21.3313H11.4133C10.826 20.3187 9.73073 19.6357 8.47829 19.6357C7.22581 19.6357 6.13056 20.3187 5.54323 21.3313H5.08701V18.7878V16.2444C6.46958 16.2444 20.8531 16.2444 21.7609 16.2444C22.2284 16.2444 22.6088 16.6247 22.6088 17.0923L22.6087 21.3313Z" fill="white"/>
    <path d="M14.4133 17.94H12.7176C12.2494 17.94 11.8698 18.3196 11.8698 18.7878C11.8698 19.2561 12.2494 19.6357 12.7176 19.6357H14.4133C14.8814 19.6357 15.2611 19.2561 15.2611 18.7878C15.2611 18.3196 14.8815 17.94 14.4133 17.94Z" fill="white"/>
  </g>
</svg>