<svg xmlns="http://www.w3.org/2000/svg" width="27" height="35" viewBox="0 0 27 35" fill="none">
  <mask id="mask0_1_1788" style="mask-type:luminance" maskUnits="userSpaceOnUse" x="1" y="5" width="26" height="26">
    <path d="M26.4285 5.3114H1.17139V30.5685H26.4285V5.3114Z" fill="white"/>
  </mask>
  <g mask="url(#mask0_1_1788)">
    <path d="M22.8286 14.9382H20.8149C20.142 13.9502 19.2467 13.1243 18.2037 12.5352C17.0357 11.8756 15.7094 11.527 14.3682 11.527H13.8C13.3877 11.527 13.0536 11.8612 13.0536 12.2733V14.9382H4.77135C2.95287 14.9382 1.44598 16.2938 1.20569 18.0473C1.20299 18.0643 1.20068 18.0812 1.19914 18.0986C1.1816 18.2429 1.17139 18.3893 1.17139 18.5383V21.392C1.17139 21.8041 1.50552 22.1382 1.9177 22.1382H4.52894C4.86095 23.4209 6.02811 24.3707 7.41303 24.3707C8.79793 24.3707 9.96511 23.4209 10.2971 22.1382H17.3028C17.635 23.4209 18.802 24.3707 20.1869 24.3707C21.5718 24.3707 22.7388 23.4209 23.071 22.1382H25.6822C26.0944 22.1382 26.4285 21.8041 26.4285 21.392V18.5383C26.4285 16.5531 24.8136 14.9382 22.8286 14.9382ZM14.5463 13.0223C16.1957 13.0696 17.7603 13.7731 18.8951 14.9382H14.5463V13.0223ZM2.66402 18.9087H3.81673C4.2289 18.9087 4.56304 18.5745 4.56304 18.1623C4.56304 17.7502 4.2289 17.416 3.81673 17.416H2.98909C3.36273 16.8247 4.02176 16.4309 4.77135 16.4309H13.0536V20.6456H10.2971C9.96488 19.3631 8.79793 18.413 7.41303 18.413C6.02811 18.413 4.86114 19.3631 4.52894 20.6456H2.66402V18.9087ZM8.89911 21.392C8.89911 22.2115 8.23254 22.8781 7.41303 22.8781C6.59349 22.8781 5.92695 22.2115 5.92695 21.392C5.92695 20.5724 6.59349 19.9059 7.41303 19.9059C8.23254 19.9059 8.89911 20.5724 8.89911 21.392ZM21.673 21.392C21.673 22.2115 21.0064 22.8781 20.1869 22.8781C19.3674 22.8781 18.7008 22.2115 18.7008 21.392C18.7008 20.5724 19.3674 19.9059 20.1869 19.9059C21.0064 19.9059 21.673 20.5724 21.673 21.392ZM23.071 20.6456C22.739 19.3631 21.5718 18.413 20.1869 18.413C18.802 18.413 17.6348 19.3631 17.3028 20.6456H14.5463V16.4309H22.8286C23.5649 16.4309 24.2141 16.811 24.591 17.3848H23.4359C23.0238 17.3848 22.6897 17.719 22.6897 18.1311C22.6897 18.5433 23.0238 18.8776 23.4359 18.8776H24.9359V20.6456H23.071Z" fill="white"/>
  </g>
</svg>