<svg xmlns="http://www.w3.org/2000/svg" width="15" height="15" viewBox="0 0 15 15" fill="none">
  <path d="M14.1109 0.819946H5.55536C5.3404 0.819946 5.16646 0.993889 5.16646 1.20885C5.16646 1.42381 5.3404 1.59775 5.55536 1.59775H13.1721L0.613728 14.1561C0.461806 14.308 0.461806 14.5541 0.613728 14.706C0.689671 14.7819 0.789202 14.8199 0.888697 14.8199C0.988192 14.8199 1.08769 14.7819 1.16367 14.706L13.722 2.14765V9.76442C13.722 9.97938 13.8959 10.1533 14.1109 10.1533C14.3259 10.1533 14.4998 9.97938 14.4998 9.76442V1.20885C14.4998 0.993889 14.3258 0.819946 14.1109 0.819946Z" fill="#405FF2"/>
</svg>