<svg xmlns="http://www.w3.org/2000/svg" width="27" height="35" viewBox="0 0 27 35" fill="none">
  <path d="M20.5625 15.5024H19.6119C19.5049 15.5031 19.3989 15.4826 19.3 15.4422C19.2009 15.4017 19.1109 15.3421 19.035 15.2668L16.8737 13.1056C16.3408 12.5726 15.7072 12.1509 15.0097 11.865C14.3123 11.579 13.565 11.4345 12.8113 11.44H5.9375C4.86006 11.44 3.82674 11.868 3.06488 12.6298C2.30301 13.3917 1.875 14.425 1.875 15.5024V19.5649C1.875 20.2114 2.13181 20.8314 2.58893 21.2886C3.04605 21.7456 3.66603 22.0024 4.3125 22.0024C4.3125 22.7567 4.61211 23.48 5.14542 24.0133C5.67872 24.5466 6.40204 24.8462 7.15625 24.8462C7.91044 24.8462 8.63378 24.5466 9.16708 24.0133C9.70039 23.48 10 22.7567 10 22.0024H15.7688C15.8586 22.6823 16.1924 23.3063 16.7081 23.7583C17.2238 24.2103 17.8861 24.4595 18.5719 24.4595C19.2576 24.4595 19.92 24.2103 20.4356 23.7583C20.9514 23.3063 21.2851 22.6823 21.375 22.0024H22.1875C22.834 22.0024 23.4539 21.7456 23.9111 21.2886C24.3682 20.8314 24.625 20.2114 24.625 19.5649C24.625 18.4875 24.197 17.4542 23.4351 16.6923C22.6732 15.9305 21.64 15.5024 20.5625 15.5024ZM12.8519 13.0649C13.3857 13.064 13.9145 13.1683 14.4081 13.3718C14.9016 13.5754 15.3502 13.8742 15.7281 14.2512L16.9794 15.5024H6.945C6.79358 15.5035 6.64488 15.4622 6.51567 15.3833C6.38646 15.3043 6.28189 15.1908 6.21375 15.0556L5.27125 13.1706C5.48674 13.102 5.71136 13.0664 5.9375 13.0649H12.8519ZM3.5 19.5649V15.5024C3.50044 15.009 3.6506 14.5274 3.93063 14.1212L4.74313 15.7462C4.94243 16.1608 5.25496 16.5104 5.64459 16.7548C6.03422 16.9993 6.48505 17.1284 6.945 17.1274H11.625V20.3774H9.71561C9.48742 19.8915 9.12548 19.4804 8.67224 19.1926C8.219 18.9047 7.69319 18.7518 7.15625 18.7518C6.61931 18.7518 6.09347 18.9047 5.64023 19.1926C5.18699 19.4804 4.8251 19.8915 4.59687 20.3774H4.3125C4.09701 20.3774 3.89035 20.2919 3.73798 20.1395C3.5856 19.9871 3.5 19.7804 3.5 19.5649ZM7.15625 22.8149C6.91521 22.8149 6.67957 22.7435 6.47915 22.6096C6.27873 22.4756 6.12251 22.2853 6.03027 22.0626C5.93803 21.8399 5.91389 21.5948 5.96092 21.3585C6.00795 21.122 6.12402 20.9048 6.29447 20.7344C6.46491 20.564 6.68207 20.4479 6.91848 20.4009C7.1549 20.3539 7.39995 20.378 7.62264 20.4703C7.84534 20.5625 8.0357 20.7187 8.1696 20.9191C8.3035 21.1195 8.375 21.3552 8.375 21.5962C8.375 21.9195 8.24661 22.2295 8.01804 22.458C7.78948 22.6865 7.47948 22.8149 7.15625 22.8149ZM18.5312 22.8149C18.2902 22.8149 18.0546 22.7435 17.8541 22.6096C17.6537 22.4756 17.4975 22.2853 17.4053 22.0626C17.313 21.8399 17.2889 21.5948 17.3359 21.3585C17.3829 21.122 17.499 20.9048 17.6695 20.7344C17.8399 20.564 18.0571 20.4479 18.2935 20.4009C18.5299 20.3539 18.7749 20.378 18.9977 20.4703C19.2204 20.5625 19.4107 20.7187 19.5446 20.9191C19.6785 21.1195 19.75 21.3552 19.75 21.5962C19.75 21.9195 19.6216 22.2295 19.393 22.458C19.1645 22.6865 18.8545 22.8149 18.5312 22.8149ZM22.1875 20.3774H21.0906C20.8624 19.8915 20.5005 19.4804 20.0472 19.1926C19.594 18.9047 19.0682 18.7518 18.5312 18.7518C17.9943 18.7518 17.4685 18.9047 17.0153 19.1926C16.562 19.4804 16.2001 19.8915 15.9719 20.3774H13.25V17.1274H20.5625C20.9033 17.1293 21.2398 17.2025 21.5505 17.3425C21.8612 17.4825 22.1391 17.686 22.3662 17.9399H22.1875C21.972 17.9399 21.7654 18.0256 21.613 18.1779C21.4606 18.3303 21.375 18.537 21.375 18.7524C21.375 18.9679 21.4606 19.1746 21.613 19.327C21.7654 19.4794 21.972 19.5649 22.1875 19.5649H23C23 19.7804 22.9144 19.9871 22.762 20.1395C22.6096 20.2919 22.403 20.3774 22.1875 20.3774Z" fill="white"/>
</svg>