<svg xmlns="http://www.w3.org/2000/svg" width="27" height="35" viewBox="0 0 27 35" fill="none">
  <path d="M24.0136 16.9813L20.7743 15.6861L18.8916 11.2929C18.5065 10.3951 17.6274 9.815 16.6508 9.815H9.19853C8.11628 9.815 7.15185 10.5422 6.85447 11.583L5.73484 15.5025H3.90997C3.01378 15.5025 2.28497 16.2313 2.28497 17.1275V22.0025C2.28497 22.8987 3.01378 23.6275 3.90997 23.6275H5.65035C6.01353 25.025 7.27535 26.065 8.78497 26.065C10.2946 26.065 11.5564 25.025 11.9196 23.6275H15.4004C15.7635 25.025 17.0254 26.065 18.535 26.065C20.0446 26.065 21.3064 25.025 21.6696 23.6275H23.41C24.3061 23.6275 25.035 22.8987 25.035 22.0025V18.4901C25.035 17.8214 24.6344 17.2291 24.0136 16.9813ZM8.78497 24.44C7.88878 24.44 7.15997 23.7112 7.15997 22.815C7.15997 21.9188 7.88878 21.19 8.78497 21.19C9.68113 21.19 10.41 21.9188 10.41 22.815C10.41 23.7112 9.68113 24.44 8.78497 24.44ZM18.535 24.44C17.6388 24.44 16.91 23.7112 16.91 22.815C16.91 21.9188 17.6388 21.19 18.535 21.19C19.4311 21.19 20.16 21.9188 20.16 22.815C20.16 23.7112 19.4311 24.44 18.535 24.44ZM23.41 22.0025H21.6696C21.3064 20.605 20.0446 19.565 18.535 19.565C17.0254 19.565 15.7635 20.605 15.4004 22.0025H11.9196C11.5564 20.605 10.2946 19.565 8.78497 19.565C7.27535 19.565 6.01353 20.605 5.65035 22.0025H3.90997V17.1275H6.34747C6.70985 17.1275 7.02916 16.887 7.12828 16.5384L8.41608 12.0299C8.51603 11.6821 8.83697 11.44 9.19853 11.44H16.6508C16.9758 11.44 17.2691 11.6334 17.3975 11.9324L19.4125 16.6351C19.497 16.8334 19.657 16.9894 19.8569 17.0698L23.41 18.4901V22.0025Z" fill="white"/>
  <path d="M12.3968 19.4285C12.0238 19.1799 11.9231 18.6753 12.1717 18.3015L12.9542 17.1275H12.0352C11.7354 17.1275 11.46 16.9625 11.3186 16.6985C11.1772 16.4344 11.1927 16.1135 11.3592 15.8649L12.9842 13.4274C13.2328 13.0537 13.7374 12.9529 14.1112 13.2023C14.4841 13.4509 14.5848 13.9555 14.3362 14.3293L13.5538 15.5025H14.4727C14.7726 15.5025 15.048 15.6674 15.1893 15.9315C15.3307 16.1955 15.3153 16.5165 15.1487 16.7652L13.5237 19.2027C13.2743 19.5772 12.7689 19.6772 12.3968 19.4285Z" fill="white"/>
</svg>