<svg xmlns="http://www.w3.org/2000/svg" width="27" height="35" viewBox="0 0 27 35" fill="none">
  <mask id="mask0_1_1776" style="mask-type:luminance" maskUnits="userSpaceOnUse" x="0" y="5" width="26" height="26">
    <path d="M25.6486 5.3114H0.391418V30.5685H25.6486V5.3114Z" fill="white"/>
  </mask>
  <g mask="url(#mask0_1_1776)">
    <path d="M23.241 16.8905L18.881 16.1635C18.626 15.7494 18.1193 15.0004 17.3824 14.2499C15.9117 12.7521 14.2184 11.9604 12.4856 11.9604H5.38528C4.23194 11.9604 3.1626 12.584 2.59456 13.5878L0.637971 17.0457C0.634814 17.0513 0.632447 17.0571 0.629437 17.0627C0.478092 17.3336 0.391418 17.6453 0.391418 17.977V21.6207C0.391418 22.0293 0.722721 22.3605 1.13137 22.3605H3.50126C3.84908 23.2707 4.73565 23.9195 5.77222 23.9195C6.80881 23.9195 7.69534 23.2707 8.04322 22.3605H17.2335C17.5813 23.2707 18.4678 23.9195 19.5044 23.9195C20.541 23.9195 21.4275 23.2707 21.7753 22.3605H24.9086C25.3172 22.3605 25.6486 22.0293 25.6486 21.6207V19.6617C25.6486 18.2736 24.6143 17.0843 23.241 16.8905ZM17.0296 16.0963H11.6992V13.4404H12.4856C14.583 13.4404 16.167 14.9909 17.0296 16.0963ZM6.76046 13.4404H10.2193V16.0963H6.76046V13.4404ZM3.88258 14.3167C4.17116 13.8067 4.70008 13.4793 5.28055 13.4439V16.0963H2.87555L3.88258 14.3167ZM5.77222 22.4396C5.24918 22.4396 4.82365 22.0212 4.82365 21.5068C4.82365 20.9926 5.24918 20.5741 5.77222 20.5741C6.29528 20.5741 6.7208 20.9926 6.7208 21.5068C6.7208 22.0212 6.29528 22.4396 5.77222 22.4396ZM19.5044 22.4396C18.9813 22.4396 18.5558 22.0212 18.5558 21.5068C18.5558 20.9926 18.9813 20.5741 19.5044 20.5741C20.0274 20.5741 20.4529 20.9926 20.4529 21.5068C20.4529 22.0212 20.0274 22.4396 19.5044 22.4396ZM21.8494 20.8806C21.5711 19.853 20.6254 19.0942 19.5044 19.0942C18.3833 19.0942 17.4377 19.853 17.1593 20.8806H8.11721C7.83893 19.853 6.89331 19.0942 5.77222 19.0942C4.65115 19.0942 3.70553 19.853 3.42716 20.8806H1.87133V17.977C1.87133 17.756 2.05109 17.5762 2.27209 17.5762H18.3559L23.0073 18.3519C23.0145 18.3531 23.0216 18.3542 23.0288 18.3552C23.1546 18.3724 23.2744 18.4076 23.3859 18.4575C23.0763 18.546 22.8495 18.8305 22.8495 19.1685C22.8495 19.5771 23.1808 19.9084 23.5894 19.9084H24.1686V20.8807L21.8494 20.8806Z" fill="white"/>
  </g>
</svg>